<svg width="177" height="36" viewBox="0 0 177 36" fill="none" xmlns="http://www.w3.org/2000/svg">
<g id="logo">
<g id="Vector">
<path fill-rule="evenodd" clip-rule="evenodd" d="M11.4455 35.7242C10.4502 36.292 9.17749 35.955 8.60285 34.9716L0.279139 20.7263C-0.295494 19.7429 0.0455191 18.4854 1.04081 17.9176L5.54616 15.3475L1.3843 8.22484C0.809664 7.24141 1.15068 5.98391 2.14597 5.41612L11.1567 0.27581C12.1519 -0.291973 13.4246 0.0449753 13.9993 1.0284L22.323 15.2737C22.8976 16.2571 22.5566 17.5146 21.5613 18.0824L17.056 20.6525L21.2178 27.7752C21.7924 28.7586 21.4514 30.0161 20.4561 30.5839L11.4455 35.7242ZM17.056 20.6525L12.5506 23.2227C11.5553 23.7905 10.2826 23.4535 9.70801 22.4701L5.54616 15.3475L10.0515 12.7773C11.0468 12.2095 12.3195 12.5465 12.8941 13.5299L17.056 20.6525Z" fill="#1D4ED8"/>
<path d="M16.9913 20.5603L12.8294 13.4376C12.2548 12.4542 10.9821 12.1173 9.98681 12.685L5.48146 15.2552L9.64332 22.3778C10.218 23.3613 11.4906 23.6982 12.4859 23.1304L16.9913 20.5603Z" fill="black" fill-opacity="0.01"/>
</g>
<g id="AccessCard">
<path d="M38.1061 29.248H35.0341C34.6501 29.248 34.5221 29.024 34.6501 28.576L39.7061 9.344C39.8554 8.896 40.1754 8.672 40.6661 8.672H44.9221C45.4554 8.672 45.7754 8.896 45.8821 9.344L50.9381 28.576C51.0661 29.024 50.9381 29.248 50.5541 29.248H47.4821C47.2474 29.248 47.0874 29.2053 47.0021 29.12C46.9168 29.0133 46.8528 28.832 46.8101 28.576L45.9141 25.056H39.6741L38.7781 28.576C38.7354 28.832 38.6608 29.0133 38.5541 29.12C38.4688 29.2053 38.3194 29.248 38.1061 29.248ZM42.7461 12.544L40.4421 21.792H45.1781L42.8741 12.544H42.7461Z" fill="#EFF6FF"/>
<path d="M63.2146 26.4V28.608C63.2146 28.8427 63.1613 29.0133 63.0546 29.12C62.9693 29.2053 62.7986 29.248 62.5426 29.248H57.7746C56.0893 29.248 54.7879 28.8 53.8706 27.904C52.9533 27.008 52.4946 25.7173 52.4946 24.032V18.144C52.4946 16.4587 52.9533 15.168 53.8706 14.272C54.7879 13.376 56.0893 12.928 57.7746 12.928H62.5426C62.9906 12.928 63.2146 13.152 63.2146 13.6V15.808C63.2146 16.0427 63.1613 16.2133 63.0546 16.32C62.9693 16.4053 62.7986 16.448 62.5426 16.448H58.4146C57.7533 16.448 57.2733 16.5973 56.9746 16.896C56.6973 17.1733 56.5586 17.6533 56.5586 18.336V23.84C56.5586 24.5227 56.6973 25.0133 56.9746 25.312C57.2733 25.5893 57.7533 25.728 58.4146 25.728H62.5426C62.9906 25.728 63.2146 25.952 63.2146 26.4Z" fill="#EFF6FF"/>
<path d="M75.7309 26.4V28.608C75.7309 28.8427 75.6775 29.0133 75.5709 29.12C75.4855 29.2053 75.3149 29.248 75.0589 29.248H70.2909C68.6055 29.248 67.3042 28.8 66.3869 27.904C65.4695 27.008 65.0109 25.7173 65.0109 24.032V18.144C65.0109 16.4587 65.4695 15.168 66.3869 14.272C67.3042 13.376 68.6055 12.928 70.2909 12.928H75.0589C75.5069 12.928 75.7309 13.152 75.7309 13.6V15.808C75.7309 16.0427 75.6775 16.2133 75.5709 16.32C75.4855 16.4053 75.3149 16.448 75.0589 16.448H70.9309C70.2695 16.448 69.7895 16.5973 69.4909 16.896C69.2135 17.1733 69.0749 17.6533 69.0749 18.336V23.84C69.0749 24.5227 69.2135 25.0133 69.4909 25.312C69.7895 25.5893 70.2695 25.728 70.9309 25.728H75.0589C75.5069 25.728 75.7309 25.952 75.7309 26.4Z" fill="#EFF6FF"/>
<path d="M89.8791 29.248H82.8071C81.1218 29.248 79.8204 28.8 78.9031 27.904C77.9858 27.008 77.5271 25.7173 77.5271 24.032V18.144C77.5271 16.4587 77.9858 15.168 78.9031 14.272C79.8204 13.376 81.1218 12.928 82.8071 12.928H85.3351C87.0204 12.928 88.3218 13.376 89.2391 14.272C90.1564 15.168 90.6151 16.4587 90.6151 18.144V22.208C90.6151 22.656 90.3911 22.88 89.9431 22.88H81.9111C81.6551 22.88 81.5271 22.9973 81.5271 23.232V23.936C81.5271 24.5973 81.6658 25.0773 81.9431 25.376C82.2418 25.6533 82.7324 25.792 83.4151 25.792H89.8791C90.3271 25.792 90.5511 26.0267 90.5511 26.496V28.608C90.5511 28.8427 90.4978 29.0133 90.3911 29.12C90.3058 29.2053 90.1351 29.248 89.8791 29.248ZM81.9111 20.16H86.2631C86.4978 20.16 86.6151 20.0427 86.6151 19.808V18.272C86.6151 17.5893 86.4764 17.1093 86.1991 16.832C85.9218 16.5547 85.4418 16.416 84.7591 16.416H83.4151C82.7324 16.416 82.2524 16.5547 81.9751 16.832C81.6978 17.1093 81.5591 17.5893 81.5591 18.272V19.808C81.5591 20.0427 81.6764 20.16 81.9111 20.16Z" fill="#EFF6FF"/>
<path d="M99.1956 29.248H93.1156C92.6889 29.248 92.4756 29.024 92.4756 28.576V26.528C92.4756 26.2933 92.5183 26.1333 92.6036 26.048C92.6889 25.9413 92.8596 25.888 93.1156 25.888H98.4596C99.5049 25.888 100.028 25.568 100.028 24.928V24.768C100.028 24.256 99.5903 23.7653 98.7156 23.296L95.5476 21.536C94.4596 20.9813 93.6596 20.384 93.1476 19.744C92.6356 19.104 92.3796 18.2827 92.3796 17.28C92.3796 15.7867 92.7743 14.688 93.5636 13.984C94.3529 13.28 95.5903 12.928 97.2756 12.928H102.62C103.046 12.928 103.26 13.152 103.26 13.6V15.68C103.26 15.9147 103.217 16.0853 103.132 16.192C103.046 16.2773 102.876 16.32 102.62 16.32H98.1716C97.1263 16.32 96.6036 16.5867 96.6036 17.12V17.28C96.6036 17.7493 97.0623 18.2293 97.9796 18.72L101.212 20.64C102.321 21.2373 103.1 21.856 103.548 22.496C103.996 23.1147 104.22 23.936 104.22 24.96C104.22 27.8187 102.545 29.248 99.1956 29.248Z" fill="#EFF6FF"/>
<path d="M112.587 29.248H106.507C106.08 29.248 105.867 29.024 105.867 28.576V26.528C105.867 26.2933 105.91 26.1333 105.995 26.048C106.08 25.9413 106.251 25.888 106.507 25.888H111.851C112.896 25.888 113.419 25.568 113.419 24.928V24.768C113.419 24.256 112.982 23.7653 112.107 23.296L108.939 21.536C107.851 20.9813 107.051 20.384 106.539 19.744C106.027 19.104 105.771 18.2827 105.771 17.28C105.771 15.7867 106.166 14.688 106.955 13.984C107.744 13.28 108.982 12.928 110.667 12.928H116.011C116.438 12.928 116.651 13.152 116.651 13.6V15.68C116.651 15.9147 116.608 16.0853 116.523 16.192C116.438 16.2773 116.267 16.32 116.011 16.32H111.563C110.518 16.32 109.995 16.5867 109.995 17.12V17.28C109.995 17.7493 110.454 18.2293 111.371 18.72L114.603 20.64C115.712 21.2373 116.491 21.856 116.939 22.496C117.387 23.1147 117.611 23.936 117.611 24.96C117.611 27.8187 115.936 29.248 112.587 29.248Z" fill="#EFF6FF"/>
<path d="M128.57 29.248H125.082C123.397 29.248 122.095 28.8 121.178 27.904C120.261 27.008 119.802 25.7173 119.802 24.032V13.888C119.802 12.2027 120.261 10.912 121.178 10.016C122.095 9.12 123.397 8.672 125.082 8.672H128.57C130.234 8.672 131.525 9.13067 132.442 10.048C133.381 10.944 133.85 12.224 133.85 13.888V15.392C133.85 15.8613 133.615 16.096 133.146 16.096H130.458C130.01 16.096 129.786 15.8613 129.786 15.392V14.08C129.786 13.3973 129.637 12.9173 129.338 12.64C129.061 12.3413 128.581 12.192 127.898 12.192H125.722C125.061 12.192 124.581 12.3413 124.282 12.64C124.005 12.9173 123.866 13.3973 123.866 14.08V23.84C123.866 24.5227 124.005 25.0133 124.282 25.312C124.581 25.5893 125.061 25.728 125.722 25.728H127.898C128.581 25.728 129.061 25.5893 129.338 25.312C129.637 25.0133 129.786 24.5227 129.786 23.84V22.528C129.786 22.0587 130.01 21.824 130.458 21.824H133.146C133.615 21.824 133.85 22.0587 133.85 22.528V24.032C133.85 25.696 133.381 26.9867 132.442 27.904C131.525 28.8 130.234 29.248 128.57 29.248Z" fill="#EFF6FF"/>
<path d="M142.109 29.248H141.341C139.656 29.248 138.354 28.8 137.437 27.904C136.52 27.008 136.061 25.7173 136.061 24.032V18.144C136.061 16.4587 136.52 15.168 137.437 14.272C138.354 13.376 139.656 12.928 141.341 12.928H148.733C149.202 12.928 149.437 13.152 149.437 13.6V28.576C149.437 29.024 149.202 29.248 148.733 29.248H146.045C145.597 29.248 145.373 29.024 145.373 28.576V27.52H145.245C145.01 28.096 144.594 28.5333 143.997 28.832C143.4 29.1093 142.77 29.248 142.109 29.248ZM145.373 23.296V16.8C145.373 16.5653 145.245 16.448 144.989 16.448H141.981C141.298 16.448 140.818 16.5973 140.541 16.896C140.264 17.1733 140.125 17.6533 140.125 18.336V23.84C140.125 24.5227 140.264 25.0133 140.541 25.312C140.818 25.5893 141.298 25.728 141.981 25.728H143.165C144.637 25.728 145.373 24.9173 145.373 23.296Z" fill="#EFF6FF"/>
<path d="M155.695 29.248H152.975C152.527 29.248 152.303 29.024 152.303 28.576V13.6C152.303 13.152 152.527 12.928 152.975 12.928H155.695C156.143 12.928 156.367 13.152 156.367 13.6V14.688H156.495C156.73 14.112 157.146 13.6747 157.743 13.376C158.341 13.0773 158.97 12.928 159.631 12.928H160.783C161.21 12.928 161.423 13.152 161.423 13.6V15.808C161.423 16.064 161.37 16.2453 161.263 16.352C161.178 16.4373 161.018 16.4693 160.783 16.448H158.575C157.103 16.448 156.367 17.28 156.367 18.944V28.576C156.367 29.024 156.143 29.248 155.695 29.248Z" fill="#EFF6FF"/>
<path d="M168.804 29.248H167.492C165.849 29.248 164.601 28.8 163.748 27.904C162.916 27.008 162.5 25.7173 162.5 24.032V18.144C162.5 16.4587 162.916 15.168 163.748 14.272C164.601 13.376 165.849 12.928 167.492 12.928H168.804C169.465 12.928 170.094 13.0773 170.692 13.376C171.289 13.6533 171.705 14.08 171.94 14.656H172.068V7.424C172.068 6.976 172.292 6.752 172.74 6.752H175.46C175.908 6.752 176.132 6.976 176.132 7.424V28.576C176.132 29.024 175.908 29.248 175.46 29.248H172.74C172.292 29.248 172.068 29.024 172.068 28.576V27.52H171.94C171.705 28.096 171.289 28.5333 170.692 28.832C170.094 29.1093 169.465 29.248 168.804 29.248ZM172.068 23.296V18.88C172.068 17.2587 171.332 16.448 169.86 16.448H168.42C167.737 16.448 167.257 16.5973 166.98 16.896C166.702 17.1733 166.564 17.6533 166.564 18.336V23.84C166.564 24.5227 166.702 25.0133 166.98 25.312C167.257 25.5893 167.737 25.728 168.42 25.728H169.86C171.332 25.728 172.068 24.9173 172.068 23.296Z" fill="#EFF6FF"/>
</g>
</g>
</svg>
